<svg width="1862" height="244" viewBox="0 0 1862 244" fill="none" xmlns="http://www.w3.org/2000/svg">
<path d="M132.716 90.2892V243.97H94.3039V90.2892H17.4478L55.86 51.877H209.541V90.2892H132.685H132.716Z" fill="#FF6D00" fill-opacity="0.2"/>
<path d="M437.993 90.2892H245.9V51.877H437.993V90.2892ZM437.993 167.145H245.9V128.733H437.993V167.145ZM437.993 244.001H245.9V205.589H437.993V244.001Z" fill="#FF6D00" fill-opacity="0.2"/>
<path d="M572.467 90.2892V243.97H534.055V90.2892H457.198L495.611 51.877H649.291V90.2892H572.435H572.467Z" fill="#FF6D00" fill-opacity="0.2"/>
<path d="M809.574 244.001L741.152 128.733H818.008C823.41 128.733 827.959 126.901 831.655 123.173C835.351 119.446 837.214 114.929 837.214 109.527C837.214 104.125 835.351 99.5764 831.655 95.8805C827.959 92.1846 823.41 90.3208 818.008 90.3208H721.946V244.001H683.534V51.877H818.008C834.024 51.877 847.607 57.4682 858.821 68.6823C870.035 79.8964 875.627 93.5113 875.627 109.495C875.627 125.479 870.035 139.126 858.821 150.308C847.607 161.491 833.992 167.114 818.008 167.114H808.689L856.42 243.97H809.606L809.574 244.001Z" fill="#FF6D00" fill-opacity="0.2"/>
<path d="M1162.58 109.527V244.001H1124.17V51.877H1162.58L1277.85 186.351V51.877H1316.26V243.97H1277.85L1162.58 109.495V109.527Z" fill="#FF6D00" fill-opacity="0.2"/>
<path d="M1419.53 244.001H1381.11V51.877H1419.53V243.97V244.001Z" fill="#FF6D00" fill-opacity="0.2"/>
<path d="M1553.97 205.555H1650.03V243.968H1553.97C1527.34 243.968 1504.69 234.617 1485.99 215.916C1467.29 197.216 1457.94 174.535 1457.94 147.937C1457.94 121.339 1467.29 98.658 1485.99 79.9573C1504.69 61.2566 1527.37 51.9062 1553.97 51.9062H1669.24L1630.83 90.3185H1553.97C1537.95 90.3185 1524.34 95.9098 1513.16 107.124C1501.94 118.338 1496.35 131.953 1496.35 147.937C1496.35 163.921 1501.94 177.567 1513.16 188.75C1524.37 199.964 1537.99 205.555 1553.97 205.555Z" fill="#FF6D00" fill-opacity="0.2"/>
<path d="M1669.84 243.999L1765.9 42.3027L1861.96 243.999H1818.75L1765.93 133.532L1713.11 243.999H1669.9H1669.84Z" fill="#FF6D00" fill-opacity="0.2"/>
<path d="M982.145 27.3306C988.368 27.3306 994.181 33.1745 999.077 43.283C1001.45 40.598 1004.92 38.8922 1008.81 38.8922C1009.25 38.8922 1009.69 38.8922 1010.1 38.9553C1003.91 23.3504 996.044 14 987.484 14C972.984 14 960.475 40.8507 954.663 79.642C960.001 48.432 970.331 27.299 982.177 27.299L982.145 27.3306Z" fill="#FF6D00" fill-opacity="0.2"/>
<path d="M1008.77 61.5741C1014.15 61.5741 1018.5 57.2181 1018.5 51.8447C1018.5 46.4712 1014.15 42.1152 1008.77 42.1152C1003.4 42.1152 999.045 46.4712 999.045 51.8447C999.045 57.2181 1003.4 61.5741 1008.77 61.5741Z" fill="#FF6D00" fill-opacity="0.2"/>
<path d="M908.195 180.57C904.91 174.631 907.943 165.787 915.777 155.615C911.733 154.699 908.448 151.887 906.805 148.191C894.738 162.091 889.558 174.41 893.949 182.339C900.961 195.038 930.497 193.048 967.298 179.401C937.384 189.763 913.913 190.963 908.195 180.57Z" fill="#FF6D00" fill-opacity="0.2"/>
<path d="M918.683 152.738C924.056 152.738 928.412 148.382 928.412 143.009C928.412 137.635 924.056 133.279 918.683 133.279C913.309 133.279 908.953 137.635 908.953 143.009C908.953 148.382 913.309 152.738 918.683 152.738Z" fill="#FF6D00" fill-opacity="0.2"/>
<path d="M1094.73 71.6838C1087.81 59.1429 1058.88 60.9435 1022.71 74.1477C1023.31 77.6225 1023.81 81.1605 1024.29 84.7616C1055.27 73.6739 1079.79 72.1576 1085.63 82.8031C1091.35 93.1643 1077.83 112.402 1053.06 132.145C1084.24 108.327 1101.71 84.3825 1094.73 71.6838Z" fill="#FF6D00" fill-opacity="0.2"/>
<path d="M1012.5 154.541C1015.91 155.647 1019.29 156.626 1022.61 157.542C1023.37 148.318 1023.78 138.62 1023.78 128.638C1023.78 103.746 1021.25 80.6861 1016.99 61.8906C1014.74 63.7228 1011.9 64.8284 1008.77 64.8284C1007.98 64.8284 1007.23 64.7652 1006.47 64.6073C1010.89 82.0444 1013.54 104.346 1013.54 128.638C1013.54 137.61 1013.2 146.265 1012.5 154.541Z" fill="#FF6D00" fill-opacity="0.2"/>
<path d="M1010.61 171.438C1005.62 205.965 994.749 229.909 982.145 229.909C970.299 229.909 960.001 208.776 954.631 177.566C960.443 216.389 972.953 243.208 987.452 243.208C1001.95 243.208 1015.12 214.904 1020.75 174.439C1017.4 173.523 1014.02 172.512 1010.61 171.406V171.438Z" fill="#FF6D00" fill-opacity="0.2"/>
<path d="M1047.47 112.336C1073.53 130.31 1088.35 148.569 1083.39 159.309C1080.13 166.353 1068.92 168.975 1053 167.617C1053.13 168.091 1053.22 168.596 1053.28 169.101C1053.73 172.671 1052.65 176.083 1050.57 178.704C1072.9 181.769 1088.95 179.02 1093.24 169.733C1099.34 156.592 1080.26 133.943 1047.5 112.336H1047.47Z" fill="#FF6D00" fill-opacity="0.2"/>
<path d="M1040.4 180.381C1045.77 180.381 1050.12 176.025 1050.12 170.651C1050.12 165.278 1045.77 160.922 1040.4 160.922C1035.02 160.922 1030.67 165.278 1030.67 170.651C1030.67 176.025 1035.02 180.381 1040.4 180.381Z" fill="#FF6D00" fill-opacity="0.2"/>
<path d="M1027.22 162.058C1011.93 158.331 994.559 152.202 976.743 143.957C966.698 139.314 957.284 134.323 948.692 129.174C945.723 131.417 942.848 133.659 940.1 135.934C949.987 141.904 960.885 147.685 972.51 153.087C991.116 161.711 1009.31 168.249 1025.61 172.451C1025.45 171.851 1025.33 171.187 1025.23 170.555C1024.85 167.46 1025.64 164.49 1027.22 162.058Z" fill="#FF6D00" fill-opacity="0.2"/>
<path d="M933.53 119.412C908.574 101.975 894.454 84.3802 899.287 73.9558C904.183 63.3735 927.338 62.9312 957.411 71.0812C920.357 60.2146 891.2 60.2462 885.198 73.1977C879.512 85.4226 896.002 106.019 925.064 126.204C927.78 123.93 930.623 121.655 933.561 119.412H933.53Z" fill="#FF6D00" fill-opacity="0.2"/>
<path d="M1006.53 80.5898C996.866 84.7596 986.884 89.6559 976.838 95.2156C956.242 106.556 938.205 119.065 924.116 131.227C927.528 132.807 930.118 135.776 931.161 139.409C944.144 127.658 961.581 115.306 981.766 104.187C990.706 99.259 999.551 94.9313 1008.08 91.2038C1007.64 87.571 1007.1 84.033 1006.53 80.6214V80.5898Z" fill="#FF6D00" fill-opacity="0.2"/>
<path d="M987.705 142.032C996.812 142.032 1004.19 134.649 1004.19 125.542C1004.19 116.435 996.812 109.053 987.705 109.053C978.598 109.053 971.215 116.435 971.215 125.542C971.215 134.649 978.598 142.032 987.705 142.032Z" fill="#FF6D00" fill-opacity="0.2"/>
<path d="M126.716 85.2892V238.97H88.3039V85.2892H11.4478L49.86 46.877H203.541V85.2892H126.685H126.716Z" fill="#FF8500" fill-opacity="0.3"/>
<path d="M431.993 85.2892H239.9V46.877H431.993V85.2892ZM431.993 162.145H239.9V123.733H431.993V162.145ZM431.993 239.001H239.9V200.589H431.993V239.001Z" fill="#FF8500" fill-opacity="0.3"/>
<path d="M566.467 85.2892V238.97H528.055V85.2892H451.198L489.611 46.877H643.291V85.2892H566.435H566.467Z" fill="#FF8500" fill-opacity="0.3"/>
<path d="M803.574 239.001L735.152 123.733H812.008C817.41 123.733 821.959 121.901 825.655 118.173C829.351 114.446 831.214 109.929 831.214 104.527C831.214 99.1252 829.351 94.5764 825.655 90.8805C821.959 87.1846 817.41 85.3208 812.008 85.3208H715.946V239.001H677.534V46.877H812.008C828.024 46.877 841.607 52.4682 852.821 63.6823C864.035 74.8964 869.627 88.5113 869.627 104.495C869.627 120.479 864.035 134.126 852.821 145.308C841.607 156.491 827.992 162.114 812.008 162.114H802.689L850.42 238.97H803.606L803.574 239.001Z" fill="#FF8500" fill-opacity="0.3"/>
<path d="M1156.58 104.527V239.001H1118.17V46.877H1156.58L1271.85 181.351V46.877H1310.26V238.97H1271.85L1156.58 104.495V104.527Z" fill="#FF8500" fill-opacity="0.3"/>
<path d="M1413.53 239.001H1375.11V46.877H1413.53V238.97V239.001Z" fill="#FF8500" fill-opacity="0.3"/>
<path d="M1547.97 200.555H1644.03V238.968H1547.97C1521.34 238.968 1498.69 229.617 1479.99 210.916C1461.29 192.216 1451.94 169.535 1451.94 142.937C1451.94 116.339 1461.29 93.658 1479.99 74.9573C1498.69 56.2566 1521.37 46.9062 1547.97 46.9062H1663.24L1624.83 85.3185H1547.97C1531.95 85.3185 1518.34 90.9098 1507.16 102.124C1495.94 113.338 1490.35 126.953 1490.35 142.937C1490.35 158.921 1495.94 172.567 1507.16 183.75C1518.37 194.964 1531.99 200.555 1547.97 200.555Z" fill="#FF8500" fill-opacity="0.3"/>
<path d="M1663.84 238.999L1759.9 37.3027L1855.96 238.999H1812.75L1759.93 128.532L1707.11 238.999H1663.9H1663.84Z" fill="#FF8500" fill-opacity="0.3"/>
<path d="M976.145 22.3306C982.368 22.3306 988.181 28.1745 993.077 38.283C995.446 35.598 998.921 33.8922 1002.81 33.8922C1003.25 33.8922 1003.69 33.8922 1004.1 33.9553C997.91 18.3504 990.044 9 981.484 9C966.984 9 954.475 35.8507 948.663 74.642C954.001 43.432 964.331 22.299 976.177 22.299L976.145 22.3306Z" fill="#FF8500" fill-opacity="0.3"/>
<path d="M1002.77 56.5741C1008.15 56.5741 1012.5 52.2181 1012.5 46.8447C1012.5 41.4712 1008.15 37.1152 1002.77 37.1152C997.401 37.1152 993.045 41.4712 993.045 46.8447C993.045 52.2181 997.401 56.5741 1002.77 56.5741Z" fill="#FF8500" fill-opacity="0.3"/>
<path d="M902.195 175.57C898.91 169.631 901.943 160.787 909.777 150.615C905.733 149.699 902.448 146.887 900.805 143.191C888.738 157.091 883.558 169.41 887.949 177.339C894.961 190.038 924.497 188.048 961.298 174.401C931.384 184.763 907.913 185.963 902.195 175.57Z" fill="#FF8500" fill-opacity="0.3"/>
<path d="M912.683 147.738C918.056 147.738 922.412 143.382 922.412 138.009C922.412 132.635 918.056 128.279 912.683 128.279C907.309 128.279 902.953 132.635 902.953 138.009C902.953 143.382 907.309 147.738 912.683 147.738Z" fill="#FF8500" fill-opacity="0.3"/>
<path d="M1088.73 66.6838C1081.81 54.1429 1052.88 55.9435 1016.71 69.1477C1017.31 72.6225 1017.81 76.1605 1018.29 79.7616C1049.27 68.6739 1073.79 67.1576 1079.63 77.8031C1085.35 88.1643 1071.83 107.402 1047.06 127.145C1078.24 103.327 1095.71 79.3825 1088.73 66.6838Z" fill="#FF8500" fill-opacity="0.3"/>
<path d="M1006.5 149.541C1009.91 150.647 1013.29 151.626 1016.61 152.542C1017.37 143.318 1017.78 133.62 1017.78 123.638C1017.78 98.7461 1015.25 75.6861 1010.99 56.8906C1008.74 58.7228 1005.9 59.8284 1002.77 59.8284C1001.98 59.8284 1001.23 59.7652 1000.47 59.6073C1004.89 77.0444 1007.54 99.3463 1007.54 123.638C1007.54 132.61 1007.2 141.265 1006.5 149.541Z" fill="#FF8500" fill-opacity="0.3"/>
<path d="M1004.61 166.438C999.616 200.965 988.749 224.909 976.145 224.909C964.299 224.909 954.001 203.776 948.631 172.566C954.443 211.389 966.953 238.208 981.452 238.208C995.951 238.208 1009.12 209.904 1014.75 169.439C1011.4 168.523 1008.02 167.512 1004.61 166.406V166.438Z" fill="#FF8500" fill-opacity="0.3"/>
<path d="M1041.47 107.336C1067.53 125.31 1082.35 143.569 1077.39 154.309C1074.13 161.353 1062.92 163.975 1047 162.617C1047.13 163.091 1047.22 163.596 1047.28 164.101C1047.73 167.671 1046.65 171.083 1044.57 173.704C1066.9 176.769 1082.95 174.02 1087.24 164.733C1093.34 151.592 1074.26 128.943 1041.5 107.336H1041.47Z" fill="#FF8500" fill-opacity="0.3"/>
<path d="M1034.4 175.381C1039.77 175.381 1044.12 171.025 1044.12 165.651C1044.12 160.278 1039.77 155.922 1034.4 155.922C1029.02 155.922 1024.67 160.278 1024.67 165.651C1024.67 171.025 1029.02 175.381 1034.4 175.381Z" fill="#FF8500" fill-opacity="0.3"/>
<path d="M1021.22 157.058C1005.93 153.331 988.559 147.202 970.743 138.957C960.698 134.314 951.284 129.323 942.692 124.174C939.723 126.417 936.848 128.659 934.1 130.934C943.987 136.904 954.885 142.685 966.51 148.087C985.116 156.711 1003.31 163.249 1019.61 167.451C1019.45 166.851 1019.33 166.187 1019.23 165.555C1018.85 162.46 1019.64 159.49 1021.22 157.058Z" fill="#FF8500" fill-opacity="0.3"/>
<path d="M927.53 114.412C902.574 96.9753 888.454 79.3802 893.287 68.9558C898.183 58.3735 921.338 57.9312 951.411 66.0812C914.357 55.2146 885.2 55.2462 879.198 68.1977C873.512 80.4226 890.002 101.019 919.064 121.204C921.78 118.93 924.623 116.655 927.561 114.412H927.53Z" fill="#FF8500" fill-opacity="0.3"/>
<path d="M1000.53 75.5898C990.866 79.7596 980.884 84.6559 970.838 90.2156C950.242 101.556 932.205 114.065 918.116 126.227C921.528 127.807 924.118 130.776 925.161 134.409C938.144 122.658 955.581 110.306 975.766 99.1868C984.706 94.259 993.551 89.9313 1002.08 86.2038C1001.64 82.571 1001.1 79.033 1000.53 75.6214V75.5898Z" fill="#FF8500" fill-opacity="0.3"/>
<path d="M981.705 137.032C990.812 137.032 998.194 129.649 998.194 120.542C998.194 111.435 990.812 104.053 981.705 104.053C972.598 104.053 965.215 111.435 965.215 120.542C965.215 129.649 972.598 137.032 981.705 137.032Z" fill="#FF8500" fill-opacity="0.3"/>
<path d="M120.716 80.2892V233.97H82.3039V80.2892H5.44775L43.86 41.877H197.541V80.2892H120.685H120.716Z" fill="#FF9E00" fill-opacity="0.4"/>
<path d="M425.993 80.2892H233.9V41.877H425.993V80.2892ZM425.993 157.145H233.9V118.733H425.993V157.145ZM425.993 234.001H233.9V195.589H425.993V234.001Z" fill="#FF9E00" fill-opacity="0.4"/>
<path d="M560.467 80.2892V233.97H522.055V80.2892H445.198L483.611 41.877H637.291V80.2892H560.435H560.467Z" fill="#FF9E00" fill-opacity="0.4"/>
<path d="M797.574 234.001L729.152 118.733H806.008C811.41 118.733 815.959 116.901 819.655 113.173C823.351 109.446 825.214 104.929 825.214 99.5269C825.214 94.1252 823.351 89.5764 819.655 85.8805C815.959 82.1846 811.41 80.3208 806.008 80.3208H709.946V234.001H671.534V41.877H806.008C822.024 41.877 835.607 47.4682 846.821 58.6823C858.035 69.8964 863.627 83.5113 863.627 99.4953C863.627 115.479 858.035 129.126 846.821 140.308C835.607 151.491 821.992 157.114 806.008 157.114H796.689L844.42 233.97H797.606L797.574 234.001Z" fill="#FF9E00" fill-opacity="0.4"/>
<path d="M1150.58 99.5269V234.001H1112.17V41.877H1150.58L1265.85 176.351V41.877H1304.26V233.97H1265.85L1150.58 99.4953V99.5269Z" fill="#FF9E00" fill-opacity="0.4"/>
<path d="M1407.53 234.001H1369.11V41.877H1407.53V233.97V234.001Z" fill="#FF9E00" fill-opacity="0.4"/>
<path d="M1541.97 195.555H1638.03V233.968H1541.97C1515.34 233.968 1492.69 224.617 1473.99 205.916C1455.29 187.216 1445.94 164.535 1445.94 137.937C1445.94 111.339 1455.29 88.658 1473.99 69.9573C1492.69 51.2566 1515.37 41.9062 1541.97 41.9062H1657.24L1618.83 80.3185H1541.97C1525.95 80.3185 1512.34 85.9098 1501.16 97.1239C1489.94 108.338 1484.35 121.953 1484.35 137.937C1484.35 153.921 1489.94 167.567 1501.16 178.75C1512.37 189.964 1525.99 195.555 1541.97 195.555Z" fill="#FF9E00" fill-opacity="0.4"/>
<path d="M1657.84 233.999L1753.9 32.3027L1849.96 233.999H1806.75L1753.93 123.532L1701.11 233.999H1657.9H1657.84Z" fill="#FF9E00" fill-opacity="0.4"/>
<path d="M970.145 17.3306C976.368 17.3306 982.181 23.1745 987.077 33.283C989.446 30.598 992.921 28.8922 996.806 28.8922C997.249 28.8922 997.691 28.8922 998.102 28.9553C991.91 13.3504 984.044 4 975.484 4C960.984 4 948.475 30.8507 942.663 69.642C948.001 38.432 958.331 17.299 970.177 17.299L970.145 17.3306Z" fill="#FF9E00" fill-opacity="0.4"/>
<path d="M996.774 51.5741C1002.15 51.5741 1006.5 47.2181 1006.5 41.8447C1006.5 36.4712 1002.15 32.1152 996.774 32.1152C991.401 32.1152 987.045 36.4712 987.045 41.8447C987.045 47.2181 991.401 51.5741 996.774 51.5741Z" fill="#FF9E00" fill-opacity="0.4"/>
<path d="M896.195 170.57C892.91 164.631 895.943 155.787 903.777 145.615C899.733 144.699 896.448 141.887 894.805 138.191C882.738 152.091 877.558 164.41 881.949 172.339C888.961 185.038 918.497 183.048 955.298 169.401C925.384 179.763 901.913 180.963 896.195 170.57Z" fill="#FF9E00" fill-opacity="0.4"/>
<path d="M906.683 142.738C912.056 142.738 916.412 138.382 916.412 133.009C916.412 127.635 912.056 123.279 906.683 123.279C901.309 123.279 896.953 127.635 896.953 133.009C896.953 138.382 901.309 142.738 906.683 142.738Z" fill="#FF9E00" fill-opacity="0.4"/>
<path d="M1082.73 61.6838C1075.81 49.1429 1046.88 50.9435 1010.71 64.1477C1011.31 67.6225 1011.81 71.1605 1012.29 74.7616C1043.27 63.6739 1067.79 62.1576 1073.63 72.8031C1079.35 83.1643 1065.83 102.402 1041.06 122.145C1072.24 98.327 1089.71 74.3825 1082.73 61.6838Z" fill="#FF9E00" fill-opacity="0.4"/>
<path d="M1000.5 144.541C1003.91 145.647 1007.29 146.626 1010.61 147.542C1011.37 138.318 1011.78 128.62 1011.78 118.638C1011.78 93.7461 1009.25 70.6861 1004.99 51.8906C1002.74 53.7228 999.902 54.8284 996.774 54.8284C995.985 54.8284 995.226 54.7652 994.468 54.6073C998.891 72.0444 1001.54 94.3463 1001.54 118.638C1001.54 127.61 1001.2 136.265 1000.5 144.541Z" fill="#FF9E00" fill-opacity="0.4"/>
<path d="M998.607 161.438C993.616 195.965 982.749 219.909 970.145 219.909C958.299 219.909 948.001 198.776 942.631 167.566C948.443 206.389 960.953 233.208 975.452 233.208C989.951 233.208 1003.12 204.904 1008.75 164.439C1005.4 163.523 1002.02 162.512 998.607 161.406V161.438Z" fill="#FF9E00" fill-opacity="0.4"/>
<path d="M1035.47 102.336C1061.53 120.31 1076.35 138.569 1071.39 149.309C1068.13 156.353 1056.92 158.975 1041 157.617C1041.13 158.091 1041.22 158.596 1041.28 159.101C1041.73 162.671 1040.65 166.083 1038.57 168.704C1060.9 171.769 1076.95 169.02 1081.24 159.733C1087.34 146.592 1068.26 123.943 1035.5 102.336H1035.47Z" fill="#FF9E00" fill-opacity="0.4"/>
<path d="M1028.4 170.381C1033.77 170.381 1038.12 166.025 1038.12 160.651C1038.12 155.278 1033.77 150.922 1028.4 150.922C1023.02 150.922 1018.67 155.278 1018.67 160.651C1018.67 166.025 1023.02 170.381 1028.4 170.381Z" fill="#FF9E00" fill-opacity="0.4"/>
<path d="M1015.22 152.058C999.933 148.331 982.559 142.202 964.743 133.957C954.698 129.314 945.284 124.323 936.692 119.174C933.723 121.417 930.848 123.659 928.1 125.934C937.987 131.904 948.885 137.685 960.51 143.087C979.116 151.711 997.311 158.249 1013.61 162.451C1013.45 161.851 1013.33 161.187 1013.23 160.555C1012.85 157.46 1013.64 154.49 1015.22 152.058Z" fill="#FF9E00" fill-opacity="0.4"/>
<path d="M921.53 109.412C896.574 91.9753 882.454 74.3802 887.287 63.9558C892.183 53.3735 915.338 52.9312 945.411 61.0812C908.357 50.2146 879.2 50.2462 873.198 63.1977C867.512 75.4226 884.002 96.0187 913.064 116.204C915.78 113.93 918.623 111.655 921.561 109.412H921.53Z" fill="#FF9E00" fill-opacity="0.4"/>
<path d="M994.532 70.5898C984.866 74.7596 974.884 79.6559 964.838 85.2156C944.242 96.556 926.205 109.065 912.116 121.227C915.528 122.807 918.118 125.776 919.161 129.409C932.144 117.658 949.581 105.306 969.766 94.1868C978.706 89.259 987.551 84.9313 996.08 81.2038C995.638 77.571 995.101 74.033 994.532 70.6214V70.5898Z" fill="#FF9E00" fill-opacity="0.4"/>
<path d="M975.705 132.032C984.812 132.032 992.194 124.649 992.194 115.542C992.194 106.435 984.812 99.0527 975.705 99.0527C966.598 99.0527 959.215 106.435 959.215 115.542C959.215 124.649 966.598 132.032 975.705 132.032Z" fill="#FF9E00" fill-opacity="0.4"/>
<path d="M115.716 76.2892V229.97H77.3039V76.2892H0.447754L38.86 37.877H192.541V76.2892H115.685H115.716Z" fill="#F9FAFB"/>
<path d="M420.993 76.2892H228.9V37.877H420.993V76.2892ZM420.993 153.145H228.9V114.733H420.993V153.145ZM420.993 230.001H228.9V191.589H420.993V230.001Z" fill="#F9FAFB"/>
<path d="M555.467 76.2892V229.97H517.055V76.2892H440.198L478.611 37.877H632.291V76.2892H555.435H555.467Z" fill="#F9FAFB"/>
<path d="M792.574 230.001L724.152 114.733H801.008C806.41 114.733 810.959 112.901 814.655 109.173C818.351 105.446 820.214 100.929 820.214 95.5269C820.214 90.1252 818.351 85.5764 814.655 81.8805C810.959 78.1846 806.41 76.3208 801.008 76.3208H704.946V230.001H666.534V37.877H801.008C817.024 37.877 830.607 43.4682 841.821 54.6823C853.035 65.8964 858.627 79.5113 858.627 95.4953C858.627 111.479 853.035 125.126 841.821 136.308C830.607 147.491 816.992 153.114 801.008 153.114H791.689L839.42 229.97H792.606L792.574 230.001Z" fill="#F9FAFB"/>
<path d="M1145.58 95.5269V230.001H1107.17V37.877H1145.58L1260.85 172.351V37.877H1299.26V229.97H1260.85L1145.58 95.4953V95.5269Z" fill="#F9FAFB"/>
<path d="M1402.53 230.001H1364.11V37.877H1402.53V229.97V230.001Z" fill="#F9FAFB"/>
<path d="M1536.97 191.555H1633.03V229.968H1536.97C1510.34 229.968 1487.69 220.617 1468.99 201.916C1450.29 183.216 1440.94 160.535 1440.94 133.937C1440.94 107.339 1450.29 84.658 1468.99 65.9573C1487.69 47.2566 1510.37 37.9062 1536.97 37.9062H1652.24L1613.83 76.3185H1536.97C1520.95 76.3185 1507.34 81.9098 1496.16 93.1239C1484.94 104.338 1479.35 117.953 1479.35 133.937C1479.35 149.921 1484.94 163.567 1496.16 174.75C1507.37 185.964 1520.99 191.555 1536.97 191.555Z" fill="#F9FAFB"/>
<path d="M1652.84 229.999L1748.9 28.3027L1844.96 229.999H1801.75L1748.93 119.532L1696.11 229.999H1652.9H1652.84Z" fill="#F9FAFB"/>
<path d="M965.145 13.3306C971.368 13.3306 977.181 19.1745 982.077 29.283C984.446 26.598 987.921 24.8922 991.806 24.8922C992.249 24.8922 992.691 24.8922 993.102 24.9553C986.91 9.35035 979.044 0 970.484 0C955.984 0 943.475 26.8507 937.663 65.642C943.001 34.432 953.331 13.299 965.177 13.299L965.145 13.3306Z" fill="#F9FAFB"/>
<path d="M991.774 47.5741C997.148 47.5741 1001.5 43.2181 1001.5 37.8447C1001.5 32.4712 997.148 28.1152 991.774 28.1152C986.401 28.1152 982.045 32.4712 982.045 37.8447C982.045 43.2181 986.401 47.5741 991.774 47.5741Z" fill="#F9FAFB"/>
<path d="M891.195 166.57C887.91 160.631 890.943 151.787 898.777 141.615C894.733 140.699 891.448 137.887 889.805 134.191C877.738 148.091 872.558 160.41 876.949 168.339C883.961 181.038 913.497 179.048 950.298 165.401C920.384 175.763 896.913 176.963 891.195 166.57Z" fill="#F9FAFB"/>
<path d="M901.683 138.738C907.056 138.738 911.412 134.382 911.412 129.009C911.412 123.635 907.056 119.279 901.683 119.279C896.309 119.279 891.953 123.635 891.953 129.009C891.953 134.382 896.309 138.738 901.683 138.738Z" fill="#F9FAFB"/>
<path d="M1077.73 57.6838C1070.81 45.1429 1041.88 46.9435 1005.71 60.1477C1006.31 63.6225 1006.81 67.1605 1007.29 70.7616C1038.27 59.6739 1062.79 58.1576 1068.63 68.8031C1074.35 79.1643 1060.83 98.402 1036.06 118.145C1067.24 94.327 1084.71 70.3825 1077.73 57.6838Z" fill="#F9FAFB"/>
<path d="M995.502 140.541C998.913 141.647 1002.29 142.626 1005.61 143.542C1006.37 134.318 1006.78 124.62 1006.78 114.638C1006.78 89.7461 1004.25 66.6861 999.987 47.8906C997.745 49.7228 994.902 50.8284 991.774 50.8284C990.985 50.8284 990.226 50.7652 989.468 50.6073C993.891 68.0444 996.544 90.3463 996.544 114.638C996.544 123.61 996.197 132.265 995.502 140.541Z" fill="#F9FAFB"/>
<path d="M993.607 157.438C988.616 191.965 977.749 215.909 965.145 215.909C953.299 215.909 943.001 194.776 937.631 163.566C943.443 202.389 955.953 229.208 970.452 229.208C984.951 229.208 998.124 200.904 1003.75 160.439C1000.4 159.523 997.018 158.512 993.607 157.406V157.438Z" fill="#F9FAFB"/>
<path d="M1030.47 98.3359C1056.53 116.31 1071.35 134.569 1066.39 145.309C1063.13 152.353 1051.92 154.975 1036 153.617C1036.13 154.091 1036.22 154.596 1036.28 155.101C1036.73 158.671 1035.65 162.083 1033.57 164.704C1055.9 167.769 1071.95 165.02 1076.24 155.733C1082.34 142.592 1063.26 119.943 1030.5 98.3359H1030.47Z" fill="#F9FAFB"/>
<path d="M1023.4 166.381C1028.77 166.381 1033.12 162.025 1033.12 156.651C1033.12 151.278 1028.77 146.922 1023.4 146.922C1018.02 146.922 1013.67 151.278 1013.67 156.651C1013.67 162.025 1018.02 166.381 1023.4 166.381Z" fill="#F9FAFB"/>
<path d="M1010.22 148.058C994.933 144.331 977.559 138.202 959.743 129.957C949.698 125.314 940.284 120.323 931.692 115.174C928.723 117.417 925.848 119.659 923.1 121.934C932.987 127.904 943.885 133.685 955.51 139.087C974.116 147.711 992.311 154.249 1008.61 158.451C1008.45 157.851 1008.33 157.187 1008.23 156.555C1007.85 153.46 1008.64 150.49 1010.22 148.058Z" fill="#F9FAFB"/>
<path d="M916.53 105.412C891.574 87.9753 877.454 70.3802 882.287 59.9558C887.183 49.3735 910.338 48.9312 940.411 57.0812C903.357 46.2146 874.2 46.2462 868.198 59.1977C862.512 71.4226 879.002 92.0187 908.064 112.204C910.78 109.93 913.623 107.655 916.561 105.412H916.53Z" fill="#F9FAFB"/>
<path d="M989.532 66.5898C979.866 70.7596 969.884 75.6559 959.838 81.2156C939.242 92.556 921.205 105.065 907.116 117.227C910.528 118.807 913.118 121.776 914.161 125.409C927.144 113.658 944.581 101.306 964.766 90.1868C973.706 85.259 982.551 80.9313 991.08 77.2038C990.638 73.571 990.101 70.033 989.532 66.6214V66.5898Z" fill="#F9FAFB"/>
<path d="M970.705 128.032C979.812 128.032 987.194 120.649 987.194 111.542C987.194 102.435 979.812 95.0527 970.705 95.0527C961.598 95.0527 954.215 102.435 954.215 111.542C954.215 120.649 961.598 128.032 970.705 128.032Z" fill="#F9FAFB"/>
</svg>
